<svg width="128" height="128" viewBox="0 0 128 128" xmlns="http://www.w3.org/2000/svg">
  <!-- Background circle -->
  <circle cx="64" cy="64" r="60" fill="#3b82f6" stroke="#1d4ed8" stroke-width="2"/>
  
  <!-- Letter J -->
  <path d="M45 35 L45 45 L55 45 L55 75 Q55 85 50 90 Q45 95 35 95 Q25 95 20 90 Q15 85 15 75 L15 65 L25 65 L25 75 Q25 80 30 80 Q35 80 35 75 L35 45 L45 45 Z" fill="white"/>
  
  <!-- Bug icon in corner -->
  <g transform="translate(85, 85) scale(0.8)">
    <ellipse cx="0" cy="0" rx="12" ry="8" fill="#ef4444"/>
    <circle cx="-4" cy="-2" r="1.5" fill="white"/>
    <circle cx="4" cy="-2" r="1.5" fill="white"/>
    <line x1="-8" y1="2" x2="-12" y2="6" stroke="#ef4444" stroke-width="2"/>
    <line x1="8" y1="2" x2="12" y2="6" stroke="#ef4444" stroke-width="2"/>
    <line x1="-6" y1="-4" x2="-10" y2="-8" stroke="#ef4444" stroke-width="1"/>
    <line x1="6" y1="-4" x2="10" y2="-8" stroke="#ef4444" stroke-width="1"/>
  </g>
</svg>